<svg width="1274" height="359" viewBox="0 0 1274 359" fill="none" xmlns="http://www.w3.org/2000/svg">
<path d="M208.858 300.812L148.69 304.739L146.071 302.301V286.116L144.668 285.761C138.362 292.723 130.749 298.372 122.263 302.386C113.725 306.618 104.332 308.83 94.8066 308.853C84.9888 308.841 75.3012 306.602 66.4711 302.301C57.3239 297.904 49.2101 291.614 42.6638 283.848C35.4951 275.249 29.9679 265.401 26.3586 254.796C22.2084 242.759 20.1509 230.098 20.2759 217.364C20.2043 205.214 22.3932 193.157 26.7304 181.811C30.793 171.005 36.8263 161.05 44.5224 152.454C51.8213 144.479 60.6933 138.108 70.5769 133.747C80.4426 129.162 91.18 126.765 102.055 126.721C110.039 126.717 117.99 127.747 125.71 129.785C132.67 131.524 139.381 134.141 145.682 137.573V77.4545C145.745 72.8678 144.913 68.3129 143.232 64.046C141.905 60.3911 139.56 57.1946 136.473 54.8361C132.46 52.334 127.972 50.6913 123.294 50.011C117.373 48.9635 111.4 48.2344 105.401 47.8271V36.9749L175.944 33.1318L178.563 35.756V268.289C178.449 271.898 179.258 275.476 180.911 278.684C182.573 281.646 184.949 284.143 187.822 285.947C190.775 287.555 194.06 288.454 197.419 288.571C201.61 288.91 205.451 289.141 208.943 289.265L208.858 300.812ZM145.648 270.541V169.587C143.9 163.587 140.809 158.065 136.611 153.441C132.412 148.818 127.216 145.214 121.419 142.906C116.381 140.894 110.992 139.916 105.57 140.028C98.768 139.981 92.0912 141.858 86.3076 145.445C80.0532 149.455 74.7341 154.767 70.7121 161.021C65.9475 168.698 62.5194 177.131 60.5742 185.959C57.9715 196.933 56.7119 208.184 56.8231 219.463C56.7354 228.434 57.6707 237.386 59.611 246.145C61.4425 254.065 64.6265 261.608 69.0224 268.441C72.9339 274.829 78.2727 280.219 84.618 284.186C91.4243 288.282 99.2548 290.349 107.192 290.146C116.485 290.146 124.178 288.103 130.272 284.017C135.99 280.253 141.164 275.718 145.648 270.541Z" fill="#231F20"/>
<path d="M285.839 303.961H202.759V292.414C205.428 292.177 208.199 291.94 211.055 291.72C213.575 291.553 216.066 291.081 218.472 290.315C221.491 289.455 224.077 287.491 225.721 284.813C227.408 281.702 228.226 278.193 228.087 274.655V168.165C228.105 164.62 227.234 161.127 225.552 158.007C223.833 154.897 221.408 152.235 218.472 150.237C215.484 148.537 212.244 147.326 208.875 146.647C205.089 145.729 201.236 145.118 197.352 144.819V133.205L258.179 129.362L260.629 131.8V272.471C260.493 276.004 261.298 279.51 262.961 282.629C264.648 285.416 267.254 287.524 270.328 288.588C272.757 289.6 275.252 290.443 277.796 291.111C280.466 291.795 283.192 292.237 285.94 292.431L285.839 303.961ZM264.009 61.3035C264.092 67.7225 261.757 73.937 257.47 78.7075C255.497 81.0706 253.024 82.9638 250.23 84.2494C247.436 85.535 244.391 86.1808 241.317 86.1397C238.383 86.1381 235.483 85.5038 232.816 84.2798C230.148 83.0558 227.774 81.2708 225.856 79.0461C221.655 74.7177 219.309 68.9156 219.317 62.878C219.248 56.6383 221.592 50.6139 225.856 46.0665C227.764 43.8269 230.135 42.0295 232.804 40.7988C235.474 39.5681 238.378 38.9335 241.317 38.939C244.361 38.8402 247.392 39.3931 250.207 40.5609C253.021 41.7286 255.555 43.4844 257.639 45.711C259.67 47.7635 261.279 50.1969 262.372 52.8723C263.465 55.5477 264.021 58.4126 264.009 61.3035Z" fill="#231F20"/>
<path d="M523.607 219.463C528.236 223.485 531.981 228.425 534.607 233.972C537.335 240.321 538.644 247.192 538.442 254.102C538.631 261.568 537.118 268.979 534.017 275.771C530.916 282.562 526.31 288.556 520.549 293.295C508.609 303.453 493.154 308.532 474.185 308.532C464.682 308.619 455.262 306.752 446.508 303.046C438.06 299.435 432.034 296.111 428.429 293.074L424.948 304.451H411.853L410.164 244.435H422.211C423.506 249.994 425.505 255.365 428.159 260.417C431.096 266.373 434.794 271.922 439.158 276.923C443.806 282.168 449.329 286.562 455.48 289.909C462.039 293.48 469.408 295.294 476.871 295.174C488.046 295.174 496.657 292.623 502.706 287.521C508.755 282.42 511.785 275.117 511.797 265.614C511.909 261.206 510.916 256.84 508.907 252.917C506.848 249.191 503.956 245.992 500.459 243.571C496.056 240.585 491.307 238.146 486.317 236.308C480.684 234.164 474.455 232.036 467.629 229.926C461.425 228.01 455.333 225.75 449.381 223.154C443.217 220.601 437.43 217.218 432.18 213.097C427.032 208.969 422.758 203.852 419.609 198.047C416.228 191.578 414.548 184.353 414.726 177.053C414.63 170.295 415.983 163.595 418.694 157.406C421.405 151.217 425.411 145.683 430.44 141.179C440.916 131.393 454.945 126.495 472.529 126.484C479.503 126.516 486.448 127.398 493.21 129.108C499.141 130.493 504.875 132.621 510.276 135.44L514.297 126.348H526.868L529.487 181.811H517.44C515.464 170.303 509.939 159.705 501.642 151.506C497.728 147.687 493.095 144.688 488.013 142.682C482.93 140.676 477.5 139.705 472.039 139.824C462.498 139.824 454.99 142.228 449.516 147.037C446.937 149.15 444.862 151.814 443.441 154.834C442.02 157.854 441.29 161.153 441.304 164.491C441.147 169.018 442.074 173.517 444.008 177.612C445.923 181.225 448.719 184.294 452.135 186.534C456.274 189.197 460.694 191.394 465.314 193.086C470.597 195.14 477.147 197.448 484.965 200.01C492.398 202.356 499.659 205.219 506.694 208.577C512.818 211.385 518.512 215.05 523.607 219.463Z" fill="#231F20"/>
<path d="M723.679 303.961H671.739L642.542 261.636C632.168 246.602 621.388 231.974 610.202 217.753L595.874 231.145V272.081C595.734 275.688 596.513 279.272 598.138 282.493C599.764 285.337 602.372 287.487 605.471 288.537C608.068 289.636 610.753 290.514 613.497 291.161C616.431 291.788 619.407 292.195 622.401 292.38V303.927H538.071V292.38C540.723 292.143 543.511 291.889 546.401 291.585C548.862 291.371 551.3 290.935 553.683 290.281C556.7 289.39 559.289 287.428 560.965 284.762C562.706 281.639 563.542 278.092 563.382 274.519V73.9161C563.409 69.7061 562.485 65.5445 560.678 61.7435C559.141 58.2728 556.702 55.2793 553.615 53.0753C551.165 51.213 547.347 49.9772 542.177 49.4015C537.006 48.8259 532.833 48.4027 529.69 48.1657V36.9749L593.424 33.1318L595.874 35.756V218.261C604.942 209.175 614.753 199.412 625.308 188.972C635.862 178.532 644.744 169.232 651.953 161.072C653.072 159.777 654.094 158.402 655.012 156.958C655.938 155.759 656.522 154.332 656.701 152.827C656.701 149.678 654.167 147.324 649.115 145.818C644.351 144.355 639.474 143.296 634.533 142.652V131.461H710.263V142.296C701.214 144.909 692.503 148.579 684.31 153.233C678.216 156.63 672.457 160.598 667.11 165.084C664.327 167.42 660.385 171.207 655.282 176.444C650.179 181.681 643.009 188.549 633.773 197.048C643.314 208.831 654.06 222.939 666.011 239.373C677.963 255.806 686.67 267.714 692.133 275.095C697.247 281.969 701.843 286.483 705.921 288.639C709.999 290.795 715.935 292.076 723.73 292.482L723.679 303.961Z" fill="#231F20"/>
<path d="M862.484 263.363C855.74 276.605 845.767 287.926 833.49 296.275C821.144 304.513 806.587 308.789 791.755 308.532C779.231 308.805 766.802 306.295 755.36 301.184C745.351 296.601 736.533 289.764 729.593 281.207C722.686 272.495 717.554 262.51 714.488 251.816C711.123 240.269 709.449 228.293 709.52 216.264C709.52 205.056 711.317 193.921 714.842 183.284C718.268 172.712 723.562 162.843 730.472 154.147C737.196 145.792 745.616 138.965 755.174 134.119C765.433 128.941 776.789 126.327 788.275 126.501C800.846 126.501 811.609 128.487 820.564 132.46C829.041 136.046 836.529 141.627 842.394 148.73C847.897 155.539 851.966 163.395 854.357 171.822C857.043 181.177 858.369 190.87 858.294 200.603V212.15H744.259C744.155 222.528 745.244 232.884 747.503 243.013C749.398 251.677 752.832 259.929 757.641 267.375C762.158 274.193 768.318 279.76 775.552 283.56C783.661 287.662 792.661 289.681 801.741 289.435C811.2 289.689 820.525 287.152 828.556 282.138C836.058 277.273 843.301 268.509 850.285 255.846L862.484 263.363ZM823.893 197.59C823.841 190.583 823.276 183.589 822.203 176.664C821.372 170.222 819.572 163.943 816.864 158.041C814.354 152.838 810.613 148.327 805.965 144.904C801.325 141.518 795.332 139.825 787.988 139.825C775.766 139.825 765.628 144.904 757.574 155.062C749.52 165.22 745.121 179.379 744.378 197.539L823.893 197.59Z" fill="#231F20"/>
<path d="M965.486 296.444C957.916 299.593 950.758 302.245 944.01 304.401C935.943 306.735 927.567 307.825 919.172 307.634C904.743 307.634 894.605 303.989 888.759 296.698C882.912 289.407 879.967 279.107 879.922 265.8V148.984H848.832V132.155H880.614V78.4365H912.414V132.155H961.836V148.984H912.836V245.383C912.779 251.425 913.039 257.466 913.613 263.481C914.018 267.92 915.292 272.235 917.364 276.179C919.278 279.592 922.241 282.294 925.813 283.882C930.575 285.821 935.697 286.716 940.834 286.506C943.74 286.506 948.032 286.235 953.675 285.71C957.724 285.476 961.735 284.801 965.638 283.695L965.486 296.444Z" fill="#231F20"/>
<path d="M1073.02 219.463C1077.65 223.475 1081.4 228.418 1084.02 233.972C1086.76 240.318 1088.07 247.19 1087.87 254.102C1088.05 261.569 1086.54 268.981 1083.43 275.773C1080.33 282.565 1075.72 288.557 1069.96 293.295C1058.03 303.453 1042.58 308.532 1023.61 308.532C1014.11 308.619 1004.69 306.752 995.933 303.046C987.485 299.435 981.459 296.111 977.854 293.074L974.373 304.451H961.262L959.572 244.435H971.552C972.839 249.996 974.838 255.368 977.499 260.417C980.437 266.373 984.135 271.922 988.499 276.923C993.147 282.168 998.67 286.562 1004.82 289.909C1011.38 293.48 1018.75 295.294 1026.21 295.174C1037.39 295.174 1046 292.623 1052.05 287.521C1058.1 282.42 1061.11 275.129 1061.1 265.648C1061.22 261.24 1060.22 256.874 1058.21 252.95C1056.14 249.232 1053.26 246.035 1049.77 243.605C1045.36 240.626 1040.61 238.187 1035.62 236.342C1029.99 234.198 1023.76 232.07 1016.94 229.96C1010.73 228.044 1004.64 225.783 998.688 223.188C992.524 220.635 986.737 217.252 981.487 213.131C976.339 209.003 972.065 203.886 968.916 198.08C965.535 191.612 963.854 184.387 964.033 177.087C963.937 170.329 965.29 163.629 968.001 157.44C970.712 151.251 974.717 145.717 979.747 141.213C990.222 131.427 1004.25 126.529 1021.82 126.517C1028.8 126.56 1035.75 127.453 1042.52 129.175C1048.5 130.526 1054.29 132.631 1059.75 135.44L1063.77 126.348H1076.31L1078.93 181.811H1066.88C1064.9 170.301 1059.37 159.703 1051.07 151.506C1047.16 147.689 1042.53 144.69 1037.45 142.684C1032.37 140.678 1026.94 139.706 1021.48 139.824C1011.93 139.824 1004.42 142.228 998.958 147.037C996.379 149.15 994.304 151.814 992.883 154.834C991.463 157.854 990.732 161.153 990.746 164.491C990.589 169.018 991.516 173.517 993.45 177.612C995.365 181.225 998.161 184.294 1001.58 186.534C1005.71 189.201 1010.13 191.398 1014.76 193.086C1020.05 195.14 1026.6 197.448 1034.39 200.01C1041.83 202.353 1049.1 205.216 1056.14 208.577C1062.25 211.386 1067.93 215.051 1073.02 219.463Z" fill="#231F20"/>
<path d="M1253.72 300.812C1248.25 302.787 1243.45 304.389 1239.31 305.62C1234.74 306.914 1230 307.536 1225.25 307.465C1216.19 307.465 1208.94 305.332 1203.52 301.066C1198.12 296.816 1194.64 290.603 1193.13 282.443H1192.09C1185.21 290.3 1176.95 296.825 1167.72 301.692C1159.05 306.116 1148.6 308.329 1136.38 308.329C1123.47 308.329 1112.85 304.378 1104.51 296.478C1096.18 288.577 1092.02 278.193 1092.04 265.326C1091.97 259.247 1092.93 253.201 1094.9 247.448C1096.76 242.216 1099.63 237.402 1103.34 233.278C1106.6 229.491 1110.5 226.32 1114.87 223.916C1119.2 221.392 1123.72 219.202 1128.39 217.364C1133.62 215.389 1144.25 211.715 1160.25 206.342C1176.26 200.97 1187.06 196.766 1192.64 193.73V176.41C1192.5 173.482 1192.18 170.564 1191.68 167.674C1191.04 163.378 1189.65 159.228 1187.57 155.417C1185.14 150.985 1181.77 147.138 1177.71 144.142C1173.47 140.925 1167.44 139.322 1159.63 139.334C1154.53 139.284 1149.47 140.203 1144.71 142.042C1141.11 143.241 1137.81 145.179 1135.01 147.731C1135.2 151.219 1135.76 154.676 1136.7 158.041C1137.76 162.157 1138.33 166.386 1138.39 170.637C1138.33 172.792 1137.8 174.908 1136.85 176.841C1135.9 178.775 1134.55 180.481 1132.88 181.845C1129.21 185.231 1124.14 186.924 1117.67 186.924C1111.85 186.924 1107.57 184.858 1104.83 180.727C1101.92 176.322 1100.5 171.092 1100.78 165.814C1101.06 160.536 1103.03 155.489 1106.4 151.422C1110.52 146.215 1115.52 141.774 1121.17 138.301C1127.12 134.713 1133.52 131.919 1140.2 129.988C1147.26 127.777 1154.62 126.635 1162.03 126.602C1170.6 126.506 1179.16 127.18 1187.61 128.617C1194.8 129.924 1201.58 132.892 1207.43 137.285C1213.48 141.767 1218.16 147.854 1220.94 154.858C1224.02 162.274 1225.56 171.811 1225.56 183.47C1225.56 200.14 1225.38 214.92 1225.03 227.81C1224.68 240.699 1224.51 254.807 1224.51 270.135C1224.33 273.898 1225.15 277.641 1226.88 280.987C1228.66 283.842 1231.16 286.178 1234.12 287.759C1236.71 288.991 1239.56 289.572 1242.42 289.452C1246.19 289.57 1250.07 289.638 1254.03 289.638L1253.72 300.812ZM1192.78 208.425C1182.9 211.359 1174.23 214.226 1166.76 217.025C1159.47 219.759 1152.51 223.285 1145.99 227.539C1140.45 231.221 1135.75 236.032 1132.19 241.658C1128.7 247.502 1126.94 254.219 1127.12 261.026C1127.12 270.744 1129.65 277.877 1134.7 282.426C1140.04 287.057 1146.94 289.479 1154 289.198C1161.71 289.353 1169.3 287.253 1175.83 283.154C1181.89 279.315 1187.26 274.485 1191.71 268.865L1192.78 208.425Z" fill="#231F20"/>
<path d="M340.381 218.989C353.212 218.989 363.614 208.567 363.614 195.71C363.614 182.854 353.212 172.432 340.381 172.432C327.55 172.432 317.148 182.854 317.148 195.71C317.148 208.567 327.55 218.989 340.381 218.989Z" fill="#231F20"/>
</svg>
