<svg width="47" height="46" viewBox="0 0 47 46" fill="none" xmlns="http://www.w3.org/2000/svg">
<path d="M16.1894 29.8901C12.3885 26.0848 12.3885 19.9152 16.1894 16.1099C19.9903 12.3047 26.1528 12.3047 29.9538 16.1099C33.7547 19.9152 33.7547 26.0848 29.9538 29.8901C26.1528 33.6953 19.9903 33.6953 16.1894 29.8901Z" fill="white"/>
<path d="M23.0722 0.0263062C35.7255 0.0263062 46.0195 10.3322 46.0195 23C46.0195 35.6678 35.7255 45.9737 23.0722 45.9737C10.4188 45.9737 0.124793 35.6678 0.124793 23C0.124793 10.3322 10.4188 0.0263062 23.0722 0.0263062ZM23.0722 44.2986C34.8026 44.2986 44.3464 34.7452 44.3464 23C44.3464 11.2548 34.8026 1.70134 23.0722 1.70134C11.3417 1.70134 1.79791 11.2548 1.79791 23C1.79791 34.7452 11.3417 44.2986 23.0722 44.2986Z" fill="white"/>
</svg>
